# xmcd
#
# Track frame offsets:
#	150
#	15010
#	41575
#	57975
#	79404
#	95590
#	112237
#	128335
#	150485
#	167507
#	183187
#	199452
#
# Disc length: 2947 seconds
#
# Revision: 1
# Processed by: cddbd v1.5.1PL0 Copyright (c) Steve Scherf et al.
# Submitted via: audiograbber 1.83.01
#
DISCID=910b810c
DTITLE=Vasious - Soul 70's
DYEAR=1999
DGENRE=Soul
TTITLE0=Ohio Players - Fire
TTITLE1=BT Express - Do It Till Your Satisfied
TTITLE2=Commodores - Three Times A Lady
TTITLE3=Brothers Johnson - I'll be Good To You
TTITLE4=Eddie Kendricks - Keep on Truckin (Part I)
TTITLE5=LTD - Back in Love Again
TTITLE6=Barry White - You're The First The Last My Everything
TTITLE7=Bloodstone - Natural High
TTITLE8=Moments - Love On A Two Way Street
TTITLE9=William Devaughn - Be Thankful For What You Got
TTITLE10=Brothers Johnson - Strawberry Letter #23
TTITLE11=Ohio Players - Love Rollercoaster
EXTD=
EXTT0=
EXTT1=
EXTT2=
EXTT3=
EXTT4=
EXTT5=
EXTT6=
EXTT7=
EXTT8=
EXTT9=
EXTT10=
EXTT11=
PLAYORDER=
